<?xml version="1.0" standalone="no"?>
<!DOCTYPE svg PUBLIC "-//W3C//DTD SVG 20010904//EN"
 "http://www.w3.org/TR/2001/REC-SVG-20010904/DTD/svg10.dtd">
<svg version="1.0" xmlns="http://www.w3.org/2000/svg"
 width="512.000000pt" height="512.000000pt" viewBox="0 0 512.000000 512.000000"
 preserveAspectRatio="xMidYMid meet">

<g transform="translate(0.000000,512.000000) scale(0.100000,-0.100000)"
fill="#000000" stroke="none">
<path d="M2355 5104 c-59 -21 -110 -67 -139 -126 -25 -50 -26 -59 -26 -222 0
-94 5 -188 11 -209 16 -60 101 -141 168 -161 75 -22 307 -22 382 0 67 20 152
101 168 161 6 21 11 115 11 209 0 163 -1 172 -26 222 -30 61 -80 105 -143 127
-61 20 -348 20 -406 -1z"/>
<path d="M1465 4274 c-258 -135 -478 -253 -487 -261 -11 -10 -18 -31 -18 -55
0 -47 35 -88 75 -88 29 0 957 479 993 512 28 27 29 76 1 112 -40 51 -55 46
-564 -220z"/>
<path d="M3091 4494 c-28 -36 -27 -85 2 -111 35 -33 964 -513 992 -513 14 0
37 11 50 25 31 30 34 93 7 118 -10 10 -230 127 -490 262 -508 265 -521 270
-561 219z"/>
<path d="M2499 4174 c-21 -22 -24 -35 -24 -96 0 -64 2 -72 28 -94 16 -13 41
-24 57 -24 16 0 41 11 57 24 26 22 28 30 28 94 0 61 -3 74 -24 96 -18 19 -35
26 -61 26 -26 0 -43 -7 -61 -26z"/>
<path d="M225 3996 c-28 -12 -65 -40 -84 -61 -60 -69 -65 -91 -66 -285 0 -197
9 -232 76 -299 68 -67 103 -76 299 -75 142 0 182 3 212 17 57 26 109 77 134
132 22 46 24 63 24 216 0 196 -11 240 -75 304 -64 64 -108 75 -304 75 -153 0
-170 -2 -216 -24z"/>
<path d="M4461 4003 c-59 -21 -124 -87 -144 -148 -13 -38 -17 -86 -17 -214 0
-153 2 -170 24 -216 25 -55 77 -106 134 -132 30 -14 70 -17 212 -17 197 -1
232 8 299 75 67 68 76 103 75 299 0 142 -3 182 -17 212 -26 57 -77 109 -132
134 -46 22 -62 24 -220 23 -127 0 -181 -5 -214 -16z"/>
<path d="M2090 3490 c-375 -205 -435 -241 -438 -262 -2 -14 3 -30 10 -35 32
-27 882 -483 899 -483 17 0 865 456 897 482 7 6 12 22 10 36 -3 22 -59 56
-441 263 -325 177 -447 239 -470 238 -22 0 -171 -77 -467 -239z"/>
<path d="M1020 3423 c-35 -13 -60 -47 -60 -83 0 -25 7 -43 23 -57 41 -37 213
-123 246 -123 67 0 107 88 62 137 -19 20 -198 116 -236 126 -11 3 -27 3 -35 0z"/>
<path d="M3953 3370 c-65 -33 -124 -68 -130 -77 -38 -50 5 -133 68 -133 33 0
205 86 247 123 45 42 20 122 -45 141 -15 5 -55 -10 -140 -54z"/>
<path d="M402 3093 c-7 -3 -19 -18 -27 -33 -22 -43 -22 -957 0 -999 24 -48 96
-58 133 -18 22 23 22 24 22 518 l0 496 -23 21 c-22 21 -73 28 -105 15z"/>
<path d="M4612 3077 c-22 -23 -22 -24 -22 -518 l0 -496 23 -21 c23 -22 68 -29
102 -16 43 17 45 38 45 534 0 496 -2 517 -45 534 -36 13 -82 6 -103 -17z"/>
<path d="M1529 3029 c-19 -19 -20 -30 -17 -549 3 -514 4 -530 23 -549 24 -23
879 -491 898 -491 36 0 37 13 37 566 0 421 -3 544 -12 552 -16 13 -866 476
-891 485 -11 4 -25 -1 -38 -14z"/>
<path d="M3504 3018 c-187 -99 -831 -452 -841 -460 -10 -8 -13 -131 -13 -552
0 -553 1 -566 37 -566 19 0 875 467 898 491 19 19 20 35 23 537 1 284 0 527
-3 539 -10 43 -37 46 -101 11z"/>
<path d="M1098 1907 c-124 -67 -138 -81 -138 -127 0 -39 26 -72 66 -84 25 -8
232 92 264 126 47 50 7 138 -62 138 -20 0 -70 -21 -130 -53z"/>
<path d="M3835 1935 c-28 -27 -33 -79 -11 -108 7 -9 66 -44 130 -78 125 -64
140 -66 184 -26 15 14 22 32 22 57 0 46 -18 62 -141 129 -110 58 -147 64 -184
26z"/>
<path d="M283 1840 c-83 -18 -151 -72 -187 -150 -19 -40 -21 -63 -21 -220 1
-194 6 -216 66 -285 19 -21 56 -49 84 -61 46 -22 63 -24 216 -24 197 0 238 10
303 76 66 65 76 106 76 303 0 153 -2 170 -24 216 -25 55 -81 109 -135 133 -42
18 -311 26 -378 12z"/>
<path d="M4508 1840 c-83 -15 -151 -69 -187 -150 -18 -39 -21 -66 -21 -211 0
-196 11 -240 75 -304 64 -64 108 -75 304 -75 153 0 170 2 216 24 55 25 106 77
132 134 14 30 17 70 17 212 1 197 -8 232 -75 299 -61 62 -106 74 -269 77 -80
2 -166 -1 -192 -6z"/>
<path d="M985 1225 c-31 -30 -34 -93 -7 -118 9 -8 229 -126 489 -261 509 -265
522 -270 562 -220 28 36 27 85 -1 112 -36 33 -964 512 -993 512 -14 0 -37 -11
-50 -25z"/>
<path d="M3585 1003 c-258 -135 -480 -254 -492 -266 -29 -26 -30 -75 -2 -111
40 -51 53 -46 561 219 260 135 480 252 490 262 46 42 4 144 -59 142 -16 0
-224 -103 -498 -246z"/>
<path d="M2499 1134 c-21 -22 -24 -35 -24 -94 0 -85 25 -120 85 -120 60 0 85
35 85 120 0 59 -3 72 -24 94 -34 36 -88 36 -122 0z"/>
<path d="M2360 730 c-67 -23 -143 -97 -159 -156 -6 -21 -11 -116 -11 -210 0
-163 1 -172 26 -222 14 -29 42 -65 62 -82 61 -50 108 -60 282 -60 174 0 221
10 282 60 20 17 48 53 62 82 25 50 26 59 26 222 0 94 -5 188 -11 209 -16 60
-101 141 -168 161 -82 24 -317 22 -391 -4z"/>
</g>
</svg>
